<mxfile host="app.diagrams.net" modified="2024-05-27T09:30:05.356Z" agent="Mozilla/5.0 (Windows NT 10.0; Win64; x64) AppleWebKit/537.36 (KHTML, like Gecko) Chrome/125.0.0.0 Safari/537.36" etag="2UPloJQth3kGNyWRTdDi" version="24.4.8" type="device">
  <diagram name="Page-1" id="58cdce13-f638-feb5-8d6f-7d28b1aa9fa0">
    <mxGraphModel dx="1500" dy="757" grid="1" gridSize="10" guides="1" tooltips="1" connect="1" arrows="1" fold="1" page="1" pageScale="1" pageWidth="1100" pageHeight="850" background="none" math="0" shadow="0">
      <root>
        <mxCell id="0" />
        <mxCell id="1" parent="0" />
        <mxCell id="1aTb1K4bln90lLpp5LH6-1" value="" style="rounded=0;whiteSpace=wrap;html=1;fillColor=none;" vertex="1" parent="1">
          <mxGeometry x="1570" width="630" height="630" as="geometry" />
        </mxCell>
        <mxCell id="3wuUIVL7UxxWHbkMjVqs-1" value="" style="rounded=0;whiteSpace=wrap;html=1;fillColor=none;" parent="1" vertex="1">
          <mxGeometry y="340" width="1570" height="290" as="geometry" />
        </mxCell>
        <mxCell id="_DRiXGlhLU-9NSZGoP_9-5" value="" style="rounded=0;whiteSpace=wrap;html=1;labelBackgroundColor=default;textShadow=1;fillColor=none;movable=1;resizable=1;rotatable=1;deletable=1;editable=1;locked=0;connectable=1;" parent="1" vertex="1">
          <mxGeometry width="1570" height="340" as="geometry" />
        </mxCell>
        <mxCell id="382b91b5511bd0f7-1" value="" style="ellipse;html=1;shape=startState;fillColor=#000000;strokeColor=#ff0000;rounded=1;shadow=0;comic=0;labelBackgroundColor=none;fontFamily=Verdana;fontSize=12;fontColor=#000000;align=center;direction=south;" parent="1" vertex="1">
          <mxGeometry y="120" width="30" height="30" as="geometry" />
        </mxCell>
        <mxCell id="382b91b5511bd0f7-5" value="Accept" style="rounded=1;whiteSpace=wrap;html=1;arcSize=24;fillColor=#ffffc0;strokeColor=#ff0000;shadow=0;comic=0;labelBackgroundColor=none;fontFamily=Verdana;fontSize=12;fontColor=#000000;align=center;" parent="1" vertex="1">
          <mxGeometry x="1060" y="440" width="120" height="60" as="geometry" />
        </mxCell>
        <mxCell id="382b91b5511bd0f7-6" value="Create complex tour request" style="rounded=1;whiteSpace=wrap;html=1;arcSize=24;fillColor=#ffffc0;strokeColor=#ff0000;shadow=0;comic=0;labelBackgroundColor=none;fontFamily=Verdana;fontSize=12;fontColor=#000000;align=center;verticalAlign=top;" parent="1" vertex="1">
          <mxGeometry x="170" y="10" width="580" height="250" as="geometry" />
        </mxCell>
        <mxCell id="2a3bc250acf0617d-9" style="edgeStyle=orthogonalEdgeStyle;html=1;labelBackgroundColor=none;endArrow=open;endSize=8;strokeColor=#ff0000;fontFamily=Verdana;fontSize=12;align=left;entryX=0;entryY=0.5;entryDx=0;entryDy=0;" parent="1" source="382b91b5511bd0f7-1" target="_DRiXGlhLU-9NSZGoP_9-18" edge="1">
          <mxGeometry relative="1" as="geometry">
            <mxPoint x="70" y="135" as="targetPoint" />
          </mxGeometry>
        </mxCell>
        <mxCell id="2a3bc250acf0617d-13" style="edgeStyle=orthogonalEdgeStyle;html=1;exitX=0.96;exitY=0.788;labelBackgroundColor=none;endArrow=open;endSize=8;strokeColor=#ff0000;fontFamily=Verdana;fontSize=12;align=left;exitDx=0;exitDy=0;exitPerimeter=0;entryX=0.5;entryY=0;entryDx=0;entryDy=0;" parent="1" source="_DRiXGlhLU-9NSZGoP_9-22" target="3wuUIVL7UxxWHbkMjVqs-3" edge="1">
          <mxGeometry relative="1" as="geometry">
            <mxPoint x="130" y="411.86" as="targetPoint" />
            <mxPoint x="833.2" y="157.5" as="sourcePoint" />
            <Array as="points">
              <mxPoint x="850" y="158" />
              <mxPoint x="850" y="392" />
              <mxPoint x="200" y="392" />
            </Array>
          </mxGeometry>
        </mxCell>
        <mxCell id="_DRiXGlhLU-9NSZGoP_9-1" value="" style="ellipse;html=1;shape=endState;fillColor=#000000;strokeColor=#ff0000;rounded=1;shadow=0;comic=0;labelBackgroundColor=none;fontFamily=Verdana;fontSize=12;fontColor=#000000;align=center;" parent="1" vertex="1">
          <mxGeometry x="185" y="570" width="30" height="30" as="geometry" />
        </mxCell>
        <mxCell id="_DRiXGlhLU-9NSZGoP_9-2" value="Input information about 1 tour in complex tour request" style="rounded=1;whiteSpace=wrap;html=1;" parent="1" vertex="1">
          <mxGeometry x="190" y="105" width="120" height="60" as="geometry" />
        </mxCell>
        <mxCell id="_DRiXGlhLU-9NSZGoP_9-3" style="edgeStyle=orthogonalEdgeStyle;html=1;exitX=1;exitY=0.5;labelBackgroundColor=none;endArrow=open;endSize=8;strokeColor=#ff0000;fontFamily=Verdana;fontSize=12;align=left;exitDx=0;exitDy=0;entryX=0;entryY=0.5;entryDx=0;entryDy=0;" parent="1" source="_DRiXGlhLU-9NSZGoP_9-2" target="_DRiXGlhLU-9NSZGoP_9-4" edge="1">
          <mxGeometry relative="1" as="geometry">
            <mxPoint x="770" y="50" as="sourcePoint" />
            <mxPoint x="430" y="90" as="targetPoint" />
          </mxGeometry>
        </mxCell>
        <mxCell id="_DRiXGlhLU-9NSZGoP_9-4" value="" style="rhombus;whiteSpace=wrap;html=1;" parent="1" vertex="1">
          <mxGeometry x="420" y="110" width="60" height="50" as="geometry" />
        </mxCell>
        <mxCell id="_DRiXGlhLU-9NSZGoP_9-6" value="Do you want to add more tour requests" style="text;html=1;align=center;verticalAlign=middle;whiteSpace=wrap;rounded=0;" parent="1" vertex="1">
          <mxGeometry x="370" y="75" width="60" height="30" as="geometry" />
        </mxCell>
        <mxCell id="_DRiXGlhLU-9NSZGoP_9-8" style="edgeStyle=elbowEdgeStyle;html=1;labelBackgroundColor=none;endArrow=open;endSize=8;strokeColor=#ff0000;fontFamily=Verdana;fontSize=12;align=left;exitX=0.5;exitY=1;exitDx=0;exitDy=0;entryX=0.5;entryY=1;entryDx=0;entryDy=0;" parent="1" source="_DRiXGlhLU-9NSZGoP_9-4" target="_DRiXGlhLU-9NSZGoP_9-2" edge="1">
          <mxGeometry relative="1" as="geometry">
            <mxPoint x="449.40999999999997" y="180" as="sourcePoint" />
            <mxPoint x="450" y="220" as="targetPoint" />
            <Array as="points">
              <mxPoint x="340" y="220" />
            </Array>
          </mxGeometry>
        </mxCell>
        <mxCell id="_DRiXGlhLU-9NSZGoP_9-9" value="Yes" style="text;html=1;align=center;verticalAlign=middle;whiteSpace=wrap;rounded=0;" parent="1" vertex="1">
          <mxGeometry x="390" y="165" width="60" height="30" as="geometry" />
        </mxCell>
        <mxCell id="_DRiXGlhLU-9NSZGoP_9-10" style="edgeStyle=elbowEdgeStyle;html=1;labelBackgroundColor=none;endArrow=open;endSize=8;strokeColor=#ff0000;fontFamily=Verdana;fontSize=12;align=left;exitX=1;exitY=0.5;exitDx=0;exitDy=0;entryX=0;entryY=0.5;entryDx=0;entryDy=0;" parent="1" source="_DRiXGlhLU-9NSZGoP_9-4" target="_DRiXGlhLU-9NSZGoP_9-12" edge="1">
          <mxGeometry relative="1" as="geometry">
            <mxPoint x="500" y="134.41" as="sourcePoint" />
            <mxPoint x="530" y="134" as="targetPoint" />
            <Array as="points" />
          </mxGeometry>
        </mxCell>
        <mxCell id="_DRiXGlhLU-9NSZGoP_9-11" value="Tourist" style="text;strokeColor=none;fillColor=none;html=1;fontSize=24;fontStyle=1;verticalAlign=middle;align=center;" parent="1" vertex="1">
          <mxGeometry x="10" y="20" width="100" height="40" as="geometry" />
        </mxCell>
        <mxCell id="_DRiXGlhLU-9NSZGoP_9-12" value="Created comlex tour request" style="rounded=0;whiteSpace=wrap;html=1;" parent="1" vertex="1">
          <mxGeometry x="540" y="105" width="120" height="60" as="geometry" />
        </mxCell>
        <mxCell id="_DRiXGlhLU-9NSZGoP_9-13" style="edgeStyle=elbowEdgeStyle;html=1;labelBackgroundColor=none;endArrow=open;endSize=8;strokeColor=#ff0000;fontFamily=Verdana;fontSize=12;align=left;exitX=1;exitY=0.5;exitDx=0;exitDy=0;entryX=1;entryY=0.5;entryDx=0;entryDy=0;" parent="1" source="_DRiXGlhLU-9NSZGoP_9-12" target="382b91b5511bd0f7-6" edge="1">
          <mxGeometry relative="1" as="geometry">
            <mxPoint x="670" y="134.41000000000003" as="sourcePoint" />
            <mxPoint x="750" y="134" as="targetPoint" />
          </mxGeometry>
        </mxCell>
        <mxCell id="_DRiXGlhLU-9NSZGoP_9-14" value="No" style="text;html=1;align=center;verticalAlign=middle;whiteSpace=wrap;rounded=0;" parent="1" vertex="1">
          <mxGeometry x="460" y="91" width="60" height="30" as="geometry" />
        </mxCell>
        <mxCell id="_DRiXGlhLU-9NSZGoP_9-15" value="" style="rhombus;whiteSpace=wrap;html=1;" parent="1" vertex="1">
          <mxGeometry x="950" y="60" width="70" height="70" as="geometry" />
        </mxCell>
        <mxCell id="_DRiXGlhLU-9NSZGoP_9-16" style="edgeStyle=elbowEdgeStyle;html=1;labelBackgroundColor=none;endArrow=open;endSize=8;strokeColor=#ff0000;fontFamily=Verdana;fontSize=12;align=left;exitX=1;exitY=0.5;exitDx=0;exitDy=0;entryX=0;entryY=0.5;entryDx=0;entryDy=0;entryPerimeter=0;" parent="1" source="382b91b5511bd0f7-6" target="_DRiXGlhLU-9NSZGoP_9-22" edge="1">
          <mxGeometry relative="1" as="geometry">
            <mxPoint x="800" y="140" as="sourcePoint" />
            <mxPoint x="790" y="135" as="targetPoint" />
          </mxGeometry>
        </mxCell>
        <mxCell id="_DRiXGlhLU-9NSZGoP_9-17" value="Do you want to create another tour request?" style="text;html=1;align=center;verticalAlign=middle;whiteSpace=wrap;rounded=0;" parent="1" vertex="1">
          <mxGeometry x="900" y="30" width="60" height="30" as="geometry" />
        </mxCell>
        <mxCell id="_DRiXGlhLU-9NSZGoP_9-18" value="" style="rhombus;whiteSpace=wrap;html=1;" parent="1" vertex="1">
          <mxGeometry x="80" y="112.5" width="40" height="45" as="geometry" />
        </mxCell>
        <mxCell id="_DRiXGlhLU-9NSZGoP_9-19" style="edgeStyle=elbowEdgeStyle;html=1;labelBackgroundColor=none;endArrow=open;endSize=8;strokeColor=#ff0000;fontFamily=Verdana;fontSize=12;align=left;exitX=1;exitY=0.5;exitDx=0;exitDy=0;entryX=0;entryY=0.5;entryDx=0;entryDy=0;" parent="1" source="_DRiXGlhLU-9NSZGoP_9-18" target="382b91b5511bd0f7-6" edge="1">
          <mxGeometry relative="1" as="geometry">
            <mxPoint x="130" y="134.41000000000003" as="sourcePoint" />
            <mxPoint x="170" y="134.41000000000003" as="targetPoint" />
            <Array as="points">
              <mxPoint x="160" y="94.41000000000003" />
            </Array>
          </mxGeometry>
        </mxCell>
        <mxCell id="_DRiXGlhLU-9NSZGoP_9-20" style="edgeStyle=elbowEdgeStyle;html=1;labelBackgroundColor=none;endArrow=open;endSize=8;strokeColor=#ff0000;fontFamily=Verdana;fontSize=12;align=left;exitX=0.5;exitY=1;exitDx=0;exitDy=0;entryX=0.5;entryY=1;entryDx=0;entryDy=0;" parent="1" source="_DRiXGlhLU-9NSZGoP_9-15" target="_DRiXGlhLU-9NSZGoP_9-18" edge="1">
          <mxGeometry relative="1" as="geometry">
            <mxPoint x="924.7099999999999" y="180" as="sourcePoint" />
            <mxPoint x="924.4158823529411" y="330" as="targetPoint" />
            <Array as="points">
              <mxPoint x="512" y="310" />
            </Array>
          </mxGeometry>
        </mxCell>
        <mxCell id="_DRiXGlhLU-9NSZGoP_9-21" value="Yes" style="text;html=1;align=center;verticalAlign=middle;whiteSpace=wrap;rounded=0;" parent="1" vertex="1">
          <mxGeometry x="930" y="127.5" width="60" height="30" as="geometry" />
        </mxCell>
        <mxCell id="_DRiXGlhLU-9NSZGoP_9-22" value="" style="html=1;points=[];perimeter=orthogonalPerimeter;fillColor=strokeColor;" parent="1" vertex="1">
          <mxGeometry x="810" y="95" width="5" height="80" as="geometry" />
        </mxCell>
        <mxCell id="_DRiXGlhLU-9NSZGoP_9-23" style="edgeStyle=elbowEdgeStyle;html=1;labelBackgroundColor=none;endArrow=open;endSize=8;strokeColor=#ff0000;fontFamily=Verdana;fontSize=12;align=left;exitX=0.976;exitY=0.083;exitDx=0;exitDy=0;exitPerimeter=0;entryX=0;entryY=0.5;entryDx=0;entryDy=0;" parent="1" source="_DRiXGlhLU-9NSZGoP_9-22" target="_DRiXGlhLU-9NSZGoP_9-15" edge="1">
          <mxGeometry relative="1" as="geometry">
            <mxPoint x="830" y="105.00000000000003" as="sourcePoint" />
            <mxPoint x="940" y="105.00000000000003" as="targetPoint" />
          </mxGeometry>
        </mxCell>
        <mxCell id="_DRiXGlhLU-9NSZGoP_9-24" style="edgeStyle=elbowEdgeStyle;html=1;labelBackgroundColor=none;endArrow=open;endSize=8;strokeColor=#ff0000;fontFamily=Verdana;fontSize=12;align=left;exitX=1;exitY=0.5;exitDx=0;exitDy=0;entryX=0;entryY=0.5;entryDx=0;entryDy=0;" parent="1" source="_DRiXGlhLU-9NSZGoP_9-15" target="_DRiXGlhLU-9NSZGoP_9-25" edge="1">
          <mxGeometry relative="1" as="geometry">
            <mxPoint x="1050" y="95" as="sourcePoint" />
            <mxPoint x="1100" y="95" as="targetPoint" />
          </mxGeometry>
        </mxCell>
        <mxCell id="_DRiXGlhLU-9NSZGoP_9-25" value="View complex tour requests" style="rounded=1;whiteSpace=wrap;html=1;arcSize=24;fillColor=#ffffc0;strokeColor=#ff0000;shadow=0;comic=0;labelBackgroundColor=none;fontFamily=Verdana;fontSize=12;fontColor=#000000;align=center;" parent="1" vertex="1">
          <mxGeometry x="1120" y="65" width="120" height="60" as="geometry" />
        </mxCell>
        <mxCell id="_DRiXGlhLU-9NSZGoP_9-27" value="No" style="text;html=1;align=center;verticalAlign=middle;whiteSpace=wrap;rounded=0;" parent="1" vertex="1">
          <mxGeometry x="1010" y="60" width="60" height="30" as="geometry" />
        </mxCell>
        <mxCell id="_DRiXGlhLU-9NSZGoP_9-28" value="Invalidate outdated complex tour request" style="shape=mxgraph.sysml.accEvent;flipH=1;whiteSpace=wrap;align=center;html=1;" parent="1" vertex="1">
          <mxGeometry x="1360" y="75" width="140" height="40" as="geometry" />
        </mxCell>
        <mxCell id="_DRiXGlhLU-9NSZGoP_9-31" style="edgeStyle=orthogonalEdgeStyle;html=1;labelBackgroundColor=none;endArrow=open;endSize=8;strokeColor=#ff0000;fontFamily=Verdana;fontSize=12;align=left;exitX=1;exitY=0.5;exitDx=0;exitDy=0;exitPerimeter=0;entryX=1;entryY=0.5;entryDx=0;entryDy=0;" parent="1" source="_DRiXGlhLU-9NSZGoP_9-28" target="_DRiXGlhLU-9NSZGoP_9-25" edge="1">
          <mxGeometry relative="1" as="geometry">
            <mxPoint x="1360" y="94.41" as="sourcePoint" />
            <mxPoint x="1240" y="94.41" as="targetPoint" />
          </mxGeometry>
        </mxCell>
        <mxCell id="3wuUIVL7UxxWHbkMjVqs-2" value="&lt;h1 style=&quot;margin-top: 0px;&quot;&gt;Guide&lt;/h1&gt;" style="text;html=1;whiteSpace=wrap;overflow=hidden;rounded=0;" parent="1" vertex="1">
          <mxGeometry x="20" y="340" width="80" height="40" as="geometry" />
        </mxCell>
        <mxCell id="3wuUIVL7UxxWHbkMjVqs-3" value="" style="rhombus;whiteSpace=wrap;html=1;" parent="1" vertex="1">
          <mxGeometry x="170" y="450" width="60" height="60" as="geometry" />
        </mxCell>
        <mxCell id="3wuUIVL7UxxWHbkMjVqs-4" value="Do you want to accept one part of complex tour request?" style="text;html=1;align=center;verticalAlign=middle;whiteSpace=wrap;rounded=0;" parent="1" vertex="1">
          <mxGeometry x="120" y="410" width="60" height="30" as="geometry" />
        </mxCell>
        <mxCell id="3wuUIVL7UxxWHbkMjVqs-7" style="edgeStyle=elbowEdgeStyle;html=1;labelBackgroundColor=none;endArrow=open;endSize=8;strokeColor=#ff0000;fontFamily=Verdana;fontSize=12;align=left;exitX=1;exitY=0.5;exitDx=0;exitDy=0;entryX=0.5;entryY=0;entryDx=0;entryDy=0;entryPerimeter=0;" parent="1" target="_DRiXGlhLU-9NSZGoP_9-1" edge="1">
          <mxGeometry relative="1" as="geometry">
            <mxPoint x="200" y="510" as="sourcePoint" />
            <mxPoint x="200" y="560" as="targetPoint" />
            <Array as="points">
              <mxPoint x="200" y="530" />
            </Array>
          </mxGeometry>
        </mxCell>
        <mxCell id="3wuUIVL7UxxWHbkMjVqs-9" value="Yes" style="text;html=1;align=center;verticalAlign=middle;whiteSpace=wrap;rounded=0;" parent="1" vertex="1">
          <mxGeometry x="220" y="450" width="60" height="30" as="geometry" />
        </mxCell>
        <mxCell id="3wuUIVL7UxxWHbkMjVqs-10" value="No" style="text;html=1;align=center;verticalAlign=middle;whiteSpace=wrap;rounded=0;" parent="1" vertex="1">
          <mxGeometry x="190" y="540" width="60" height="30" as="geometry" />
        </mxCell>
        <mxCell id="3wuUIVL7UxxWHbkMjVqs-11" style="edgeStyle=elbowEdgeStyle;html=1;labelBackgroundColor=none;endArrow=open;endSize=8;strokeColor=#ff0000;fontFamily=Verdana;fontSize=12;align=left;exitX=0.25;exitY=1;exitDx=0;exitDy=0;entryX=0.5;entryY=1;entryDx=0;entryDy=0;" parent="1" source="3wuUIVL7UxxWHbkMjVqs-9" target="1aTb1K4bln90lLpp5LH6-5" edge="1">
          <mxGeometry relative="1" as="geometry">
            <mxPoint x="440" y="479" as="sourcePoint" />
            <mxPoint x="540" y="480" as="targetPoint" />
            <Array as="points">
              <mxPoint x="470" y="540" />
            </Array>
          </mxGeometry>
        </mxCell>
        <mxCell id="3wuUIVL7UxxWHbkMjVqs-12" value="Part of comlex tour&lt;div&gt;&amp;nbsp;request accepted&lt;/div&gt;" style="html=1;shadow=0;dashed=0;align=center;verticalAlign=middle;shape=mxgraph.arrows2.arrow;dy=0;dx=10;notch=0;" parent="1" vertex="1">
          <mxGeometry x="1420" y="360" width="140" height="30" as="geometry" />
        </mxCell>
        <mxCell id="3wuUIVL7UxxWHbkMjVqs-14" value="Change status of part of the complex tour request to accepted" style="shape=mxgraph.sysml.accEvent;flipH=1;whiteSpace=wrap;align=center;html=1;" parent="1" vertex="1">
          <mxGeometry x="1100" y="190" width="220" height="40" as="geometry" />
        </mxCell>
        <mxCell id="3wuUIVL7UxxWHbkMjVqs-15" style="edgeStyle=elbowEdgeStyle;html=1;labelBackgroundColor=none;endArrow=open;endSize=8;strokeColor=#ff0000;fontFamily=Verdana;fontSize=12;align=left;entryX=0.5;entryY=1;entryDx=0;entryDy=0;entryPerimeter=0;exitX=0;exitY=0.5;exitDx=0;exitDy=0;exitPerimeter=0;" parent="1" source="3wuUIVL7UxxWHbkMjVqs-12" target="3wuUIVL7UxxWHbkMjVqs-14" edge="1">
          <mxGeometry relative="1" as="geometry">
            <mxPoint x="1210" y="485" as="sourcePoint" />
            <mxPoint x="720" y="480" as="targetPoint" />
            <Array as="points">
              <mxPoint x="1210" y="320" />
            </Array>
          </mxGeometry>
        </mxCell>
        <mxCell id="3wuUIVL7UxxWHbkMjVqs-16" style="edgeStyle=elbowEdgeStyle;html=1;labelBackgroundColor=none;endArrow=open;endSize=8;strokeColor=#ff0000;fontFamily=Verdana;fontSize=12;align=left;exitX=0.5;exitY=0;exitDx=0;exitDy=0;entryX=0.75;entryY=1;entryDx=0;entryDy=0;exitPerimeter=0;" parent="1" source="3wuUIVL7UxxWHbkMjVqs-14" target="_DRiXGlhLU-9NSZGoP_9-25" edge="1">
          <mxGeometry relative="1" as="geometry">
            <mxPoint x="1210" y="150" as="sourcePoint" />
            <mxPoint x="1260" y="150" as="targetPoint" />
            <Array as="points" />
          </mxGeometry>
        </mxCell>
        <mxCell id="1aTb1K4bln90lLpp5LH6-2" value="System" style="text;strokeColor=none;fillColor=none;html=1;fontSize=24;fontStyle=1;verticalAlign=middle;align=center;" vertex="1" parent="1">
          <mxGeometry x="1580" y="10" width="100" height="40" as="geometry" />
        </mxCell>
        <mxCell id="1aTb1K4bln90lLpp5LH6-3" value="Check if the tour &lt;br&gt;request is outdated" style="html=1;shadow=0;dashed=0;align=center;verticalAlign=middle;shape=mxgraph.arrows2.arrow;dy=0;dx=10;notch=0;" vertex="1" parent="1">
          <mxGeometry x="1690" y="78" width="160" height="34" as="geometry" />
        </mxCell>
        <mxCell id="1aTb1K4bln90lLpp5LH6-4" style="edgeStyle=orthogonalEdgeStyle;html=1;labelBackgroundColor=none;endArrow=open;endSize=8;strokeColor=#ff0000;fontFamily=Verdana;fontSize=12;align=left;entryX=0;entryY=0.5;entryDx=12;entryDy=0;exitX=0;exitY=0.5;exitDx=0;exitDy=0;exitPerimeter=0;entryPerimeter=0;" edge="1" parent="1" source="1aTb1K4bln90lLpp5LH6-3" target="_DRiXGlhLU-9NSZGoP_9-28">
          <mxGeometry relative="1" as="geometry">
            <mxPoint x="1690" y="97" as="sourcePoint" />
            <mxPoint x="1570" y="97.33000000000004" as="targetPoint" />
          </mxGeometry>
        </mxCell>
        <mxCell id="1aTb1K4bln90lLpp5LH6-5" value="" style="rhombus;whiteSpace=wrap;html=1;" vertex="1" parent="1">
          <mxGeometry x="1860" y="220" width="80" height="80" as="geometry" />
        </mxCell>
        <mxCell id="1aTb1K4bln90lLpp5LH6-6" value="Has guide already accepted part of tour request" style="text;html=1;align=center;verticalAlign=middle;whiteSpace=wrap;rounded=0;" vertex="1" parent="1">
          <mxGeometry x="1820" y="310" width="60" height="30" as="geometry" />
        </mxCell>
        <mxCell id="1aTb1K4bln90lLpp5LH6-7" style="edgeStyle=elbowEdgeStyle;html=1;labelBackgroundColor=none;endArrow=open;endSize=8;strokeColor=#ff0000;fontFamily=Verdana;fontSize=12;align=left;exitX=0;exitY=0.5;exitDx=0;exitDy=0;entryX=1;entryY=0.5;entryDx=0;entryDy=0;" edge="1" parent="1" source="1aTb1K4bln90lLpp5LH6-5" target="382b91b5511bd0f7-5">
          <mxGeometry relative="1" as="geometry">
            <mxPoint x="1695" y="260" as="sourcePoint" />
            <mxPoint x="1780" y="260" as="targetPoint" />
            <Array as="points">
              <mxPoint x="1650" y="370" />
            </Array>
          </mxGeometry>
        </mxCell>
        <mxCell id="1aTb1K4bln90lLpp5LH6-8" value="No" style="text;html=1;align=center;verticalAlign=middle;whiteSpace=wrap;rounded=0;" vertex="1" parent="1">
          <mxGeometry x="1800" y="215" width="60" height="30" as="geometry" />
        </mxCell>
        <mxCell id="1aTb1K4bln90lLpp5LH6-9" value="" style="ellipse;html=1;shape=endState;fillColor=#000000;strokeColor=#ff0000;rounded=1;shadow=0;comic=0;labelBackgroundColor=none;fontFamily=Verdana;fontSize=12;fontColor=#000000;align=center;" vertex="1" parent="1">
          <mxGeometry x="2100" y="245" width="30" height="30" as="geometry" />
        </mxCell>
        <mxCell id="1aTb1K4bln90lLpp5LH6-10" style="edgeStyle=elbowEdgeStyle;html=1;labelBackgroundColor=none;endArrow=open;endSize=8;strokeColor=#ff0000;fontFamily=Verdana;fontSize=12;align=left;entryX=0;entryY=0.5;entryDx=0;entryDy=0;exitX=1;exitY=0.5;exitDx=0;exitDy=0;" edge="1" parent="1" source="1aTb1K4bln90lLpp5LH6-5" target="1aTb1K4bln90lLpp5LH6-9">
          <mxGeometry relative="1" as="geometry">
            <mxPoint x="1970" y="259.33" as="sourcePoint" />
            <mxPoint x="2080" y="259.33" as="targetPoint" />
          </mxGeometry>
        </mxCell>
        <mxCell id="1aTb1K4bln90lLpp5LH6-11" value="Yes" style="text;html=1;align=center;verticalAlign=middle;whiteSpace=wrap;rounded=0;" vertex="1" parent="1">
          <mxGeometry x="1930" y="215" width="60" height="30" as="geometry" />
        </mxCell>
        <mxCell id="1aTb1K4bln90lLpp5LH6-12" value="" style="triangle;whiteSpace=wrap;html=1;rotation=90;" vertex="1" parent="1">
          <mxGeometry x="2092.5" y="44.5" width="45" height="63" as="geometry" />
        </mxCell>
        <mxCell id="1aTb1K4bln90lLpp5LH6-13" value="" style="triangle;whiteSpace=wrap;html=1;rotation=-90;" vertex="1" parent="1">
          <mxGeometry x="2090" y="95" width="50" height="59" as="geometry" />
        </mxCell>
        <mxCell id="1aTb1K4bln90lLpp5LH6-14" value="[Every 24 hours]&amp;nbsp;" style="text;html=1;align=center;verticalAlign=middle;whiteSpace=wrap;rounded=0;" vertex="1" parent="1">
          <mxGeometry x="2090" y="3" width="100" height="30" as="geometry" />
        </mxCell>
        <mxCell id="1aTb1K4bln90lLpp5LH6-15" value="" style="rhombus;whiteSpace=wrap;html=1;" vertex="1" parent="1">
          <mxGeometry x="1960" y="90" width="60" height="60" as="geometry" />
        </mxCell>
        <mxCell id="1aTb1K4bln90lLpp5LH6-16" style="edgeStyle=orthogonalEdgeStyle;html=1;labelBackgroundColor=none;endArrow=open;endSize=8;strokeColor=#ff0000;fontFamily=Verdana;fontSize=12;align=left;exitX=1;exitY=0.5;exitDx=0;exitDy=0;entryX=1;entryY=0.5;entryDx=0;entryDy=0;" edge="1" parent="1" source="1aTb1K4bln90lLpp5LH6-13" target="1aTb1K4bln90lLpp5LH6-15">
          <mxGeometry relative="1" as="geometry">
            <mxPoint x="2100" y="95" as="sourcePoint" />
            <mxPoint x="2020" y="95" as="targetPoint" />
          </mxGeometry>
        </mxCell>
        <mxCell id="1aTb1K4bln90lLpp5LH6-17" value="Check if the tour request is 48 hours before expiration date" style="text;html=1;align=center;verticalAlign=middle;whiteSpace=wrap;rounded=0;" vertex="1" parent="1">
          <mxGeometry x="2010" y="50" width="50" as="geometry" />
        </mxCell>
        <mxCell id="1aTb1K4bln90lLpp5LH6-18" style="edgeStyle=orthogonalEdgeStyle;html=1;labelBackgroundColor=none;endArrow=open;endSize=8;strokeColor=#ff0000;fontFamily=Verdana;fontSize=12;align=left;entryX=1;entryY=0.5;entryDx=0;entryDy=0;exitX=0;exitY=0.5;exitDx=0;exitDy=0;entryPerimeter=0;" edge="1" parent="1" source="1aTb1K4bln90lLpp5LH6-15" target="1aTb1K4bln90lLpp5LH6-3">
          <mxGeometry relative="1" as="geometry">
            <mxPoint x="1930" y="89.34" as="sourcePoint" />
            <mxPoint x="1880" y="88.67" as="targetPoint" />
          </mxGeometry>
        </mxCell>
        <mxCell id="1aTb1K4bln90lLpp5LH6-19" style="edgeStyle=orthogonalEdgeStyle;html=1;labelBackgroundColor=none;endArrow=open;endSize=8;strokeColor=#ff0000;fontFamily=Verdana;fontSize=12;align=left;entryX=0;entryY=0.5;entryDx=0;entryDy=0;exitX=0.5;exitY=1;exitDx=0;exitDy=0;" edge="1" parent="1" source="1aTb1K4bln90lLpp5LH6-15" target="1aTb1K4bln90lLpp5LH6-13">
          <mxGeometry relative="1" as="geometry">
            <mxPoint x="1980" y="190" as="sourcePoint" />
            <mxPoint x="2090" y="190" as="targetPoint" />
            <Array as="points">
              <mxPoint x="1990" y="190" />
              <mxPoint x="2115" y="190" />
            </Array>
          </mxGeometry>
        </mxCell>
        <mxCell id="1aTb1K4bln90lLpp5LH6-20" value="Yes" style="text;html=1;align=center;verticalAlign=middle;whiteSpace=wrap;rounded=0;" vertex="1" parent="1">
          <mxGeometry x="1920" y="60" width="60" height="30" as="geometry" />
        </mxCell>
        <mxCell id="1aTb1K4bln90lLpp5LH6-21" value="No" style="text;html=1;align=center;verticalAlign=middle;whiteSpace=wrap;rounded=0;" vertex="1" parent="1">
          <mxGeometry x="1990" y="145" width="60" height="30" as="geometry" />
        </mxCell>
        <mxCell id="1aTb1K4bln90lLpp5LH6-22" style="edgeStyle=orthogonalEdgeStyle;html=1;labelBackgroundColor=none;endArrow=open;endSize=8;strokeColor=#ff0000;fontFamily=Verdana;fontSize=12;align=left;exitX=0.5;exitY=0;exitDx=0;exitDy=0;entryX=0;entryY=0;entryDx=65;entryDy=30;entryPerimeter=0;" edge="1" parent="1" source="382b91b5511bd0f7-5" target="3wuUIVL7UxxWHbkMjVqs-12">
          <mxGeometry relative="1" as="geometry">
            <mxPoint x="1130" y="430" as="sourcePoint" />
            <mxPoint x="1130" y="340" as="targetPoint" />
          </mxGeometry>
        </mxCell>
      </root>
    </mxGraphModel>
  </diagram>
</mxfile>
